{"title":"Wreck.it.Ralph.2012.MKV.Latino.5.1.1080p.BluRay.H264-HRSCR","uid":13440563,"size":1922258091,"categoryP":"video","categoryS":"hd___movies","magnet":"?xt=urn:btih:70497c0a7499b00f65102c6ee89b89bb30330a1b&amp;dn=Wreck.it.Ralph.2012.MKV.Latino.5.1.1080p.BluRay.H264-HRSCR&amp;tr=udp%3A%2F%2Ftracker.leechers-paradise.org%3A6969&amp;tr=udp%3A%2F%2Fzer0day.ch%3A1337&amp;tr=udp%3A%2F%2Fopen.demonii.com%3A1337&amp;tr=udp%3A%2F%2Ftracker.coppersurfer.tk%3A6969&amp;tr=udp%3A%2F%2Fexodus.desync.com%3A6969","seeders":0,"leechers":1,"uploader":"HRSCR","files":3,"time":1454696262,"description":"General\r\nUnique ID                                : 220300489307726250724785220709552349492 (0xA5BC54B6A7A0B94981CEDA411435E134)\r\nComplete name                            : Wreck it Ralph.mkv\r\nFormat                                   : Matroska\r\nFormat version                           : Version 4 / Version 2\r\nFile size                                : 1.79 GiB\r\nDuration                                 : 1h 41mn\r\nOverall bit rate                         : 2 532 Kbps\r\nEncoded date                             : UTC 2016-02-05 16:35:56\r\nWriting application                      : mkvmerge v8.8.0 ('Wind at my back') 64bit\r\nWriting library                          : libebml v1.3.3 + libmatroska v1.4.4\r\n\r\nVideo\r\nID                                       : 1\r\nFormat                                   : AVC\r\nFormat/Info                              : Advanced Video Codec\r\nFormat profile                           :   \r\nFormat settings, CABAC                   : Yes\r\nFormat settings, ReFrames                : 5 frames\r\nCodec ID                                 : V_MPEG4/ISO/AVC\r\nDuration                                 : 1h 41mn\r\nBit rate                                 : 1 890 Kbps\r\nWidth                                    : 1 920 pixels\r\nHeight                                   : 808 pixels\r\nDisplay aspect ratio                     : 2.40:1\r\nFrame rate mode                          : Constant\r\nFrame rate                               : 23.976 (24000/1001) fps\r\nColor space                              : YUV\r\nChroma subsampling                       : 4:2:0\r\nBit depth                                : 8 bits\r\nScan type                                : Progressive\r\nBits/(Pixel*Frame)                       : 0.051\r\nStream size                              : 1.34 GiB (75%)\r\nWriting library                          : x264 core 129 r2245 bc13772\r\nEncoding settings                        : cabac=1 / ref=5 / deblock=1:0:0 / analyse=0x3:0x113 / me=umh / subme=8 / psy=1 / psy_rd=1.00:0.00 / mixed_ref=1 / me_range=16 / chroma_me=1 / trellis=1 / 8x8dct=1 / cqm=0 / deadzone=21,11 / fast_pskip=1 / chroma_qp_offset=-2 / threads=12 / lookahead_threads=2 / sliced_threads=0 / nr=0 / decimate=1 / interlaced=0 / bluray_compat=0 / constrained_intra=0 / bframes=3 / b_pyramid=2 / b_adapt=2 / b_bias=0 / direct=3 / weightb=1 / open_gop=0 / weightp=2 / keyint=240 / keyint_min=23 / scenecut=40 / intra_refresh=0 / rc_lookahead=50 / rc=2pass / mbtree=1 / bitrate=1890 / ratetol=1.0 / qcomp=0.60 / qpmin=10 / qpmax=51 / qpstep=4 / cplxblur=20.0 / qblur=0.5 / ip_ratio=1.40 / aq=1:1.00\r\nDefault                                  : Yes\r\nForced                                   : No\r\n\r\nAudio\r\nID                                       : 2\r\nFormat                                   : AC-3\r\nFormat/Info                              : Audio Coding 3\r\nMode extension                           : CM (complete main)\r\nFormat settings, Endianness              : Big\r\nCodec ID                                 : A_AC3\r\nDuration                                 : 1h 41mn\r\nBit rate mode                            : Constant\r\nBit rate                                 : 640 Kbps\r\nChannel(s)                               : 6 channels\r\nChannel positions                        : Front: L C R, Side: L R, LFE\r\nSampling rate                            : 48.0 KHz\r\nFrame rate                               : 31.250 fps (1536 spf)\r\nCompression mode                         : Lossy\r\nStream size                              : 463 MiB (25%)\r\nDefault                                  : Yes\r\nForced                                   : Yes","torrent":{"xt":"urn:btih:70497c0a7499b00f65102c6ee89b89bb30330a1b","amp;dn":"Wreck.it.Ralph.2012.MKV.Latino.5.1.1080p.BluRay.H264-HRSCR","amp;tr":["udp%3A%2F%2Ftracker.leechers-paradise.org%3A6969","udp%3A%2F%2Fzer0day.ch%3A1337","udp%3A%2F%2Fopen.demonii.com%3A1337","udp%3A%2F%2Ftracker.coppersurfer.tk%3A6969","udp%3A%2F%2Fexodus.desync.com%3A6969"],"infoHash":"70497c0a7499b00f65102c6ee89b89bb30330a1b","infoHashBuffer":{"type":"Buffer","data":[112,73,124,10,116,153,176,15,101,16,44,110,232,155,137,187,48,51,10,27]},"announce":[],"urlList":[]}}